<svg width="36" height="37" viewBox="0 0 36 37" fill="none" xmlns="http://www.w3.org/2000/svg">
<path d="M30.9955 33C30.9955 34.6569 29.6524 36 27.9955 36H8.99551C7.33865 36 5.99551 34.6569 5.99551 33V9C5.99551 7.34315 7.33865 6 8.99551 6H27.9955C29.6524 6 30.9955 7.34315 30.9955 9V25.2119" stroke="#B0BEC5" stroke-linecap="round"/>
<path d="M4 31C2.34315 31 1 29.6569 1 28V4C1 2.34315 2.34315 1 4 1H23C24.6569 1 26 2.34315 26 4" stroke="#B0BEC5" stroke-linecap="round"/>
<path fill-rule="evenodd" clip-rule="evenodd" d="M23.7685 12.4887C27.0285 15.3755 27.3311 20.3585 24.4444 23.6185C21.5576 26.8786 16.5745 27.1812 13.3145 24.2944C10.0544 21.4076 9.75182 16.4246 12.6386 13.1645C15.5254 9.90448 20.5084 9.60188 23.7685 12.4887ZM25.5389 23.8666C28.4162 20.1962 27.9692 14.8727 24.4314 11.74C20.7579 8.48708 15.1429 8.82806 11.8899 12.5016C8.63702 16.1751 8.97799 21.7902 12.6515 25.0431C16.2096 28.1937 21.5889 27.9729 24.8793 24.6182L24.9218 24.6558L30.8343 29.8913C31.041 30.0744 31.357 30.0552 31.5401 29.8485C31.7231 29.6417 31.7039 29.3257 31.4972 29.1427L25.5847 23.9071L25.5389 23.8666Z" fill="#B0BEC5"/>
<path d="M16 21L21 16" stroke="#FF4747" stroke-linecap="round"/>
<path d="M16 16L21 21" stroke="#FF4747" stroke-linecap="round"/>
</svg>
